<svg xmlns="http://www.w3.org/2000/svg" viewBox="0 0 512 512" role="img" aria-label="Logo Cruzamentos SICONFI em formato de olho sem borda">
  <defs>
    <linearGradient id="bg" x1="64" y1="40" x2="448" y2="472" gradientUnits="userSpaceOnUse">
      <stop offset="0" stop-color="#0b0f68"/>
      <stop offset="1" stop-color="#03063f"/>
    </linearGradient>
    <linearGradient id="eyeStroke" x1="74" y1="168" x2="438" y2="344" gradientUnits="userSpaceOnUse">
      <stop offset="0" stop-color="#2fd0dc"/>
      <stop offset="0.52" stop-color="#ffffff"/>
      <stop offset="1" stop-color="#2d71d6"/>
    </linearGradient>
    <linearGradient id="iris" x1="210" y1="210" x2="302" y2="302" gradientUnits="userSpaceOnUse">
      <stop offset="0" stop-color="#2fd0dc"/>
      <stop offset="1" stop-color="#0a4f91"/>
    </linearGradient>
    <linearGradient id="gold" x1="236" y1="236" x2="276" y2="276" gradientUnits="userSpaceOnUse">
      <stop offset="0" stop-color="#ffd25a"/>
      <stop offset="1" stop-color="#d99a00"/>
    </linearGradient>
    <filter id="shadow" x="-18%" y="-18%" width="136%" height="136%">
      <feDropShadow dx="0" dy="14" stdDeviation="18" flood-color="#000000" flood-opacity="0.3"/>
    </filter>
  </defs>

  <rect x="32" y="32" width="448" height="448" rx="88" fill="url(#bg)"/>

  <g filter="url(#shadow)">
    <path d="M76 256c51-73 111-109 180-109s129 36 180 109c-51 73-111 109-180 109S127 329 76 256Z" fill="none" stroke="url(#eyeStroke)" stroke-width="28" stroke-linecap="round" stroke-linejoin="round"/>
    <path d="M112 256c43-47 91-70 144-70s101 23 144 70c-43 47-91 70-144 70s-101-23-144-70Z" fill="#060947" opacity="0.72"/>
  </g>

  <circle cx="256" cy="256" r="72" fill="url(#iris)"/>
  <circle cx="256" cy="256" r="38" fill="#050742"/>
  <circle cx="256" cy="256" r="19" fill="url(#gold)"/>
  <circle cx="233" cy="231" r="10" fill="#ffffff" opacity="0.9"/>

  <g fill="none" stroke-linecap="round" stroke-linejoin="round">
    <path d="M102 256h68c24 0 43 9 60 26l26 26" stroke="#2fd0dc" stroke-width="12" opacity="0.82"/>
    <path d="M410 256h-68c-24 0-43 9-60 26l-26 26" stroke="#2d71d6" stroke-width="12" opacity="0.82"/>
    <path d="M160 219h42c19 0 36 7 50 21l4 4" stroke="#ffffff" stroke-width="10" opacity="0.82"/>
    <path d="M352 219h-42c-19 0-36 7-50 21l-4 4" stroke="#ffffff" stroke-width="10" opacity="0.82"/>
  </g>

  <g fill="#2fd0dc" opacity="0.9">
    <rect x="196" y="346" width="18" height="46" rx="5"/>
    <rect x="232" y="330" width="18" height="62" rx="5"/>
    <rect x="268" y="310" width="18" height="82" rx="5"/>
    <rect x="304" y="286" width="18" height="106" rx="5"/>
  </g>

  <g fill="#ffffff">
    <circle cx="102" cy="256" r="8"/>
    <circle cx="170" cy="256" r="8"/>
    <circle cx="410" cy="256" r="8"/>
    <circle cx="342" cy="256" r="8"/>
  </g>
</svg>
